<svg xmlns="http://www.w3.org/2000/svg" viewBox="0 0 300 80" fill="none">
  <defs>
    <linearGradient id="paint0_linear" x1="0" y1="0" x2="300" y2="80" gradientUnits="userSpaceOnUse">
      <stop stop-color="#64FFDA"/>
      <stop offset="1" stop-color="#00B4D8"/>
    </linearGradient>
  </defs>
  <path d="M44.152 58.736C40.792 58.736 37.744 58.064 35.008 56.72C32.304 55.344 30.16 53.472 28.576 51.104C27.024 48.704 26.248 45.968 26.248 42.896C26.248 39.824 27.024 37.104 28.576 34.736C30.16 32.336 32.304 30.48 35.008 29.168C37.744 27.824 40.792 27.152 44.152 27.152C47.512 27.152 50.544 27.824 53.248 29.168C55.984 30.48 58.128 32.336 59.68 34.736C61.264 37.104 62.056 39.824 62.056 42.896C62.056 45.968 61.264 48.704 59.68 51.104C58.128 53.472 55.984 55.344 53.248 56.72C50.544 58.064 47.512 58.736 44.152 58.736ZM44.152 51.68C46.792 51.68 48.92 50.864 50.536 49.232C52.152 47.568 52.96 45.44 52.96 42.848C52.96 40.256 52.152 38.144 50.536 36.512C48.92 34.848 46.792 34.016 44.152 34.016C41.512 34.016 39.384 34.848 37.768 36.512C36.152 38.144 35.344 40.256 35.344 42.848C35.344 45.44 36.152 47.568 37.768 49.232C39.384 50.864 41.512 51.68 44.152 51.68ZM65.8339 58V27.888H74.5499V58H65.8339ZM70.2179 24.448C68.5139 24.448 67.1059 23.952 65.9939 22.96C64.9139 21.936 64.3739 20.688 64.3739 19.216C64.3739 17.744 64.9139 16.512 65.9939 15.52C67.1059 14.496 68.5139 13.984 70.2179 13.984C71.9219 13.984 73.3139 14.48 74.3939 15.472C75.4739 16.432 76.0139 17.632 76.0139 19.072C76.0139 20.608 75.4739 21.904 74.3939 22.96C73.3139 23.952 71.9219 24.448 70.2179 24.448ZM93.3995 27.888L93.6915 33.424C94.6755 31.504 96.0515 29.968 97.8515 28.816C99.6515 27.664 101.772 27.088 104.212 27.088C106.324 27.088 108.148 27.552 109.684 28.48C111.252 29.408 112.436 30.752 113.236 32.512C114.068 34.272 114.484 36.4 114.484 38.896V58H105.768V39.488C105.768 37.376 105.288 35.76 104.308 34.64C103.36 33.52 101.932 32.96 100.02 32.96C98.3955 32.96 96.9875 33.328 95.7955 34.064C94.6355 34.8 93.7475 35.84 93.1315 37.184C92.5475 38.496 92.2555 40.048 92.2555 41.84V58H83.5395V27.888H93.3995ZM128.624 58H119.908V27.888H128.624V58ZM124.304 24.448C122.6 24.448 121.192 23.952 120.08 22.96C119 21.936 118.46 20.688 118.46 19.216C118.46 17.744 119 16.512 120.08 15.52C121.192 14.496 122.6 13.984 124.304 13.984C126.008 13.984 127.4 14.48 128.48 15.472C129.56 16.432 130.1 17.632 130.1 19.072C130.1 20.608 129.56 21.904 128.48 22.96C127.4 23.952 126.008 24.448 124.304 24.448ZM153.486 58.736C150.126 58.736 147.094 58.064 144.39 56.72C141.686 55.344 139.542 53.472 137.958 51.104C136.374 48.704 135.582 45.968 135.582 42.896C135.582 39.824 136.374 37.104 137.958 34.736C139.542 32.336 141.686 30.48 144.39 29.168C147.094 27.824 150.126 27.152 153.486 27.152C156.846 27.152 159.862 27.824 162.534 29.168C165.238 30.48 167.366 32.336 168.918 34.736C170.502 37.104 171.294 39.824 171.294 42.896C171.294 45.968 170.502 48.704 168.918 51.104C167.366 53.472 165.238 55.344 162.534 56.72C159.862 58.064 156.846 58.736 153.486 58.736ZM153.486 51.68C156.126 51.68 158.254 50.864 159.87 49.232C161.486 47.568 162.294 45.44 162.294 42.848C162.294 40.256 161.486 38.144 159.87 36.512C158.254 34.848 156.126 34.016 153.486 34.016C150.846 34.016 148.718 34.848 147.102 36.512C145.486 38.144 144.678 40.256 144.678 42.848C144.678 45.44 145.486 47.568 147.102 49.232C148.718 50.864 150.846 51.68 153.486 51.68ZM175.168 58V27.888H183.884V58H175.168ZM179.552 24.448C177.848 24.448 176.44 23.952 175.328 22.96C174.248 21.936 173.708 20.688 173.708 19.216C173.708 17.744 174.248 16.512 175.328 15.52C176.44 14.496 177.848 13.984 179.552 13.984C181.256 13.984 182.648 14.48 183.728 15.472C184.808 16.432 185.348 17.632 185.348 19.072C185.348 20.608 184.808 21.904 183.728 22.96C182.648 23.952 181.256 24.448 179.552 24.448ZM201.485 33.616V58H192.773V27.888H200.965L201.485 33.616ZM213.725 27.648L213.629 34.688C213.149 34.624 212.581 34.576 211.925 34.544C211.301 34.48 210.741 34.448 210.245 34.448C208.413 34.448 206.853 34.736 205.565 35.312C204.309 35.856 203.325 36.656 202.613 37.712C201.933 38.768 201.565 40.048 201.485 41.552L200.245 41.12C200.245 38.448 200.613 36.048 201.349 33.92C202.085 31.76 203.197 30.064 204.677 28.832C206.189 27.6 208.077 26.984 210.341 26.984C210.853 26.984 211.381 27.024 211.925 27.104C212.501 27.152 213.117 27.36 213.725 27.648ZM233.69 58.736C229.626 58.736 226.378 57.616 223.946 55.376C221.514 53.136 220.298 49.936 220.298 45.776V27.888H229.05V45.392C229.05 47.536 229.53 49.136 230.49 50.192C231.45 51.248 232.858 51.776 234.722 51.776C236.33 51.776 237.73 51.424 238.922 50.72C240.114 50.016 241.018 49.024 241.634 47.744C242.282 46.432 242.586 44.896 242.57 43.136V27.888H251.322V58H242.09L241.538 52.56C240.65 54.352 239.322 55.808 237.554 56.928C235.818 58.016 233.866 58.576 231.69 58.672C231.93 58.704 232.074 58.72 232.122 58.72C232.202 58.736 232.266 58.736 232.314 58.736H233.69ZM265.503 58.736C262.895 58.736 260.559 58.224 258.495 57.2C256.463 56.176 254.855 54.704 253.671 52.784C252.487 50.864 251.887 48.592 251.871 45.968V45.392C251.871 42.56 252.423 40.064 253.527 37.904C254.631 35.744 256.159 34.064 258.111 32.864C260.095 31.664 262.335 31.056 264.831 30.992C267.183 30.896 269.167 31.328 270.783 32.288C272.431 33.216 273.703 34.512 274.599 36.176C275.495 37.84 276.111 39.76 276.447 41.936L268.015 41.648C267.919 39.952 267.487 38.64 266.719 37.712C265.983 36.752 264.879 36.272 263.407 36.272C261.031 36.272 259.551 37.344 258.959 39.488C258.655 40.512 258.511 41.888 258.527 43.616V44.672C258.527 47.088 258.975 48.88 259.871 50.048C260.767 51.216 262.063 51.792 263.759 51.792C265.015 51.792 266.031 51.472 266.815 50.832C267.599 50.192 268.159 49.312 268.495 48.192L276.447 48.576C275.967 50.4 275.103 52.032 273.855 53.472C272.639 54.88 271.071 55.984 269.151 56.784C267.231 58.064 265.695 58.688 264.543 58.656C264.511 58.704 264.335 58.736 264.015 58.736H265.503Z" fill="url(#paint0_linear)"/>
  <circle cx="231" cy="21" r="10" stroke="url(#paint0_linear)" stroke-width="2"/>
  <circle cx="244" cy="21" r="4" fill="url(#paint0_linear)"/>
</svg> 